<svg width="10" height="18" viewBox="0 0 10 18" fill="none" xmlns="http://www.w3.org/2000/svg">
<path fill-rule="evenodd" clip-rule="evenodd" d="M0.80764 1.05752C0.865697 0.999315 0.934667 0.953136 1.0106 0.921628C1.08653 0.89012 1.16793 0.873901 1.25014 0.873901C1.33235 0.873901 1.41375 0.89012 1.48968 0.921628C1.56561 0.953136 1.63458 0.999315 1.69264 1.05752L9.19264 8.55752C9.25085 8.61558 9.29702 8.68455 9.32853 8.76048C9.36004 8.83641 9.37626 8.91781 9.37626 9.00002C9.37626 9.08223 9.36004 9.16363 9.32853 9.23956C9.29702 9.31549 9.25085 9.38446 9.19264 9.44252L1.69264 16.9425C1.57528 17.0599 1.41611 17.1258 1.25014 17.1258C1.08417 17.1258 0.924999 17.0599 0.80764 16.9425C0.690282 16.8252 0.624351 16.666 0.624351 16.5C0.624351 16.334 0.690282 16.1749 0.80764 16.0575L7.86639 9.00002L0.80764 1.94252C0.749436 1.88446 0.703258 1.81549 0.671749 1.73956C0.640241 1.66363 0.624023 1.58223 0.624023 1.50002C0.624023 1.41781 0.640241 1.33641 0.671749 1.26048C0.703258 1.18455 0.749436 1.11558 0.80764 1.05752Z" fill="white"/>
</svg>
