<svg width="20" height="20" viewBox="0 0 24 24" fill="none" xmlns="http://www.w3.org/2000/svg">
<g clip-path="url(#clip0)">
<path d="M21.0001 21.75C20.9016 21.7501 20.804 21.7308 20.713 21.6931C20.622 21.6553 20.5394 21.6 20.4699 21.5301L2.46994 3.53013C2.33522 3.38833 2.26123 3.19952 2.26373 3.00395C2.26624 2.80838 2.34504 2.62152 2.48334 2.48322C2.62164 2.34492 2.8085 2.26612 3.00407 2.26361C3.19964 2.26111 3.38845 2.3351 3.53025 2.46982L21.5302 20.4698C21.6351 20.5747 21.7064 20.7083 21.7354 20.8538C21.7643 20.9992 21.7494 21.1499 21.6927 21.2869C21.6359 21.4239 21.5399 21.541 21.4166 21.6235C21.2933 21.7059 21.1484 21.7499 21.0001 21.75Z" fill="white"/>
<path d="M1.815 9.22409C0.627656 10.3069 0 11.7853 0 13.5C0 15.1875 0.674062 16.7288 1.89797 17.8402C3.07687 18.9108 4.66687 19.5 6.375 19.5H15.4125C15.4867 19.5001 15.5593 19.4781 15.621 19.4369C15.6827 19.3957 15.7308 19.3371 15.7592 19.2686C15.7876 19.2 15.7951 19.1246 15.7806 19.0518C15.7661 18.979 15.7303 18.9122 15.6778 18.8597L4.72875 7.91065C4.68065 7.86244 4.62033 7.82825 4.55426 7.81173C4.48819 7.79522 4.41888 7.797 4.35375 7.8169C3.375 8.11643 2.50312 8.59596 1.815 9.22409Z" fill="white"/>
<path d="M22.3401 18.3389C23.4262 17.474 24 16.1901 24 14.625C24 11.9264 22.0312 10.379 19.8956 9.9023C19.7551 9.87029 19.6268 9.79849 19.5261 9.6955C19.4253 9.5925 19.3564 9.46267 19.3275 9.32152C18.9675 7.60214 18.1814 6.12699 17.0221 5.00902C15.6729 3.71192 13.8715 2.99131 12 2.99995C10.5412 2.99995 9.18183 3.42183 8.0334 4.22339C7.98791 4.2545 7.94985 4.29526 7.9219 4.34275C7.89396 4.39025 7.87683 4.44332 7.87173 4.49819C7.86663 4.55306 7.87368 4.60838 7.89239 4.66021C7.91109 4.71204 7.94099 4.75912 7.97996 4.79808L21.6412 18.4593C21.7032 18.5214 21.785 18.5597 21.8724 18.5677C21.9597 18.5756 22.0471 18.5527 22.1193 18.5029C22.1953 18.4504 22.2689 18.3957 22.3401 18.3389Z" fill="white"/>
</g>
<defs>
<clipPath id="clip0">
<rect width="24" height="24" fill="white"/>
</clipPath>
</defs>
</svg>
