<svg width="20" height="20" viewBox="0 0 24 24" fill="none" xmlns="http://www.w3.org/2000/svg">
<path d="M18.7209 3.75048C18.4529 3.77135 18.1967 3.86982 17.9837 4.03385C17.7707 4.19788 17.61 4.42039 17.5213 4.6742C17.4326 4.92801 17.4198 5.20216 17.4843 5.46316C17.5488 5.72417 17.6879 5.96075 17.8846 6.14402C18.6545 6.91231 19.2648 7.82519 19.6807 8.83017C20.0965 9.83514 20.3096 10.9124 20.3077 12C20.309 13.0875 20.0956 14.1646 19.6798 15.1695C19.264 16.1744 18.654 17.0874 17.8846 17.856C17.7509 17.9837 17.6441 18.1368 17.5704 18.3064C17.4967 18.4759 17.4577 18.6585 17.4555 18.8434C17.4534 19.0283 17.4882 19.2117 17.558 19.3829C17.6278 19.5541 17.7311 19.7097 17.8618 19.8404C17.9925 19.9711 18.1481 20.0744 18.3193 20.1442C18.4905 20.2139 18.6739 20.2488 18.8588 20.2467C19.0437 20.2445 19.2262 20.2055 19.3958 20.1318C19.5654 20.0581 19.7185 19.9513 19.8462 19.8176C21.9154 17.7421 23.0774 14.9308 23.0774 12C23.0774 9.06922 21.9154 6.25797 19.8462 4.18248C19.7196 4.04869 19.5677 3.94149 19.3992 3.86715C19.2307 3.79282 19.0491 3.75284 18.8649 3.74955C18.817 3.74706 18.7689 3.74706 18.7209 3.74955V3.75048ZM4.96156 3.77817C4.6547 3.81887 4.37033 3.96121 4.15386 4.18248C2.08459 6.25797 0.922607 9.06922 0.922607 12C0.922607 14.9308 2.08459 17.7421 4.15386 19.8176C4.28155 19.9513 4.43467 20.0581 4.60424 20.1318C4.7738 20.2055 4.95638 20.2445 5.14124 20.2467C5.32611 20.2488 5.50954 20.2139 5.68076 20.1442C5.85197 20.0744 6.00751 19.9711 6.13824 19.8404C6.26897 19.7097 6.37225 19.5541 6.44202 19.3829C6.51179 19.2117 6.54663 19.0283 6.5445 18.8434C6.54238 18.6585 6.50332 18.4759 6.42963 18.3064C6.35594 18.1368 6.24911 17.9837 6.1154 17.856C5.34558 17.0877 4.73521 16.1748 4.31938 15.1699C3.90354 14.1649 3.69044 13.0876 3.69233 12C3.69104 10.9125 3.90442 9.83541 4.32022 8.83052C4.73603 7.82562 5.34608 6.91268 6.1154 6.14402C6.32471 5.94075 6.46446 5.67655 6.5147 5.38914C6.56494 5.10173 6.52311 4.8058 6.39517 4.54358C6.26723 4.28135 6.05973 4.06625 5.80228 3.92896C5.54483 3.79167 5.25059 3.73922 4.96156 3.77909V3.77817ZM8.48125 6.83632C8.17766 6.86897 7.89337 7.00105 7.67263 7.21202C7.00275 7.81721 6.46684 8.5558 6.09931 9.38036C5.73177 10.2049 5.54074 11.0972 5.53848 12C5.53848 13.8905 6.34156 15.6092 7.64402 16.7889C7.77857 16.912 7.93606 17.0074 8.10747 17.0697C8.27889 17.1319 8.46089 17.1598 8.64308 17.1517C8.82527 17.1436 9.00408 17.0997 9.1693 17.0225C9.33452 16.9453 9.48292 16.8363 9.60602 16.7017C9.72912 16.5672 9.82451 16.4097 9.88674 16.2382C9.94898 16.0668 9.97685 15.8848 9.96875 15.7026C9.96065 15.5205 9.91674 15.3416 9.83954 15.1764C9.76233 15.0112 9.65334 14.8628 9.51879 14.7397C9.13558 14.3939 8.82963 13.9712 8.62094 13.4991C8.41226 13.027 8.30552 12.5162 8.30771 12C8.3058 11.4837 8.41275 10.9727 8.62158 10.5005C8.83041 10.0283 9.13644 9.6054 9.51971 9.2594C9.74092 9.06695 9.89533 8.80925 9.96069 8.52342C10.0261 8.23759 9.99899 7.93839 9.88341 7.66893C9.76782 7.39947 9.56968 7.17365 9.31752 7.02402C9.06537 6.87439 8.77223 6.80867 8.48033 6.83632H8.48125ZM15.3176 6.83632C15.043 6.85146 14.7791 6.94803 14.5596 7.11372C14.3401 7.27941 14.1749 7.50672 14.0851 7.76665C13.9953 8.02659 13.9849 8.30739 14.0553 8.57324C14.1257 8.8391 14.2736 9.07797 14.4803 9.2594C14.8638 9.60521 15.17 10.0281 15.3789 10.5003C15.5877 10.9726 15.6945 11.4836 15.6923 12C15.6942 12.5163 15.5873 13.0273 15.3785 13.4995C15.1696 13.9717 14.8636 14.3946 14.4803 14.7406C14.326 14.8559 14.1975 15.002 14.1029 15.1697C14.0083 15.3374 13.9497 15.523 13.9309 15.7147C13.9121 15.9063 13.9334 16.0998 13.9936 16.2827C14.0538 16.4656 14.1514 16.634 14.2804 16.777C14.4093 16.92 14.5666 17.0346 14.7423 17.1134C14.918 17.1922 15.1082 17.2335 15.3008 17.2346C15.4933 17.2357 15.684 17.1967 15.8606 17.1199C16.0372 17.0432 16.1959 16.9305 16.3265 16.7889C16.9966 16.1837 17.5328 15.445 17.9005 14.6203C18.2682 13.7955 18.4593 12.903 18.4616 12C18.465 11.0989 18.2794 10.2071 17.9167 9.38224C17.554 8.55736 17.0223 7.81771 16.356 7.21109C16.2179 7.08074 16.0544 6.9802 15.8758 6.91573C15.6971 6.85126 15.5071 6.82423 15.3176 6.83632ZM12 10.3274C11.6692 10.3276 11.346 10.4258 11.071 10.6097C10.7961 10.7936 10.5818 11.0549 10.4554 11.3606C10.3289 11.6662 10.2959 12.0025 10.3606 12.3269C10.4252 12.6513 10.5846 12.9492 10.8185 13.1831C11.0525 13.4169 11.3505 13.5761 11.675 13.6406C11.9994 13.705 12.3357 13.6718 12.6412 13.5452C12.9468 13.4186 13.208 13.2042 13.3917 12.9292C13.5755 12.6541 13.6736 12.3308 13.6736 12C13.6739 11.7801 13.6309 11.5624 13.5469 11.3591C13.4629 11.1559 13.3397 10.9713 13.1842 10.8158C13.0287 10.6604 12.8441 10.5371 12.6409 10.4531C12.4377 10.3692 12.2199 10.3261 12 10.3265V10.3274Z" fill="white"/>
</svg>
