<svg width="20" height="20" viewBox="0 0 24 24" fill="none" xmlns="http://www.w3.org/2000/svg">
<path d="M12.0116 9.15474C11.3108 9.15474 10.6546 9.42661 10.1577 9.92349C9.66317 10.4204 9.38895 11.0766 9.38895 11.7774C9.38895 12.4782 9.66317 13.1344 10.1577 13.6313C10.6546 14.1258 11.3108 14.4001 12.0116 14.4001C12.7124 14.4001 13.3686 14.1258 13.8655 13.6313C14.36 13.1344 14.6343 12.4782 14.6343 11.7774C14.6343 11.0766 14.36 10.4204 13.8655 9.92349C13.6228 9.67893 13.334 9.48504 13.0157 9.35307C12.6974 9.2211 12.3561 9.15368 12.0116 9.15474ZM21.6749 14.6743L20.1421 13.3641C20.2147 12.9188 20.2522 12.4641 20.2522 12.0118C20.2522 11.5594 20.2147 11.1024 20.1421 10.6594L21.6749 9.34927C21.7907 9.25014 21.8736 9.11812 21.9125 8.97075C21.9514 8.82338 21.9446 8.66765 21.8929 8.52427L21.8718 8.46333C21.4499 7.2837 20.8178 6.19026 20.0061 5.23599L19.964 5.18677C19.8654 5.07087 19.734 4.98756 19.5872 4.94782C19.4403 4.90807 19.2849 4.91375 19.1413 4.96411L17.2382 5.64146C16.535 5.06489 15.7522 4.61021 14.9038 4.2938L14.5358 2.30396C14.5081 2.15405 14.4353 2.01615 14.3273 1.90856C14.2193 1.80097 14.0811 1.72879 13.9311 1.70161L13.8679 1.68989C12.6491 1.46958 11.3647 1.46958 10.146 1.68989L10.0827 1.70161C9.93269 1.72879 9.79451 1.80097 9.6865 1.90856C9.57849 2.01615 9.50578 2.15405 9.47801 2.30396L9.1077 4.30317C8.2673 4.6221 7.48441 5.07569 6.78973 5.64614L4.87255 4.96411C4.72903 4.91335 4.57346 4.90746 4.42652 4.94724C4.27958 4.98701 4.14821 5.07055 4.04989 5.18677L4.0077 5.23599C3.19745 6.19128 2.56553 7.28444 2.14208 8.46333L2.12098 8.52427C2.01551 8.81724 2.10223 9.14536 2.33895 9.34927L3.89051 10.6735C3.81786 11.1141 3.7827 11.5641 3.7827 12.0094C3.7827 12.4594 3.81786 12.9094 3.89051 13.3454L2.34364 14.6696C2.22785 14.7687 2.14497 14.9007 2.10604 15.0481C2.0671 15.1955 2.07395 15.3512 2.12567 15.4946L2.14676 15.5555C2.57098 16.7344 3.19676 17.8243 4.01239 18.7829L4.05458 18.8321C4.15314 18.948 4.28451 19.0313 4.43136 19.071C4.57822 19.1108 4.73367 19.1051 4.87723 19.0547L6.79442 18.3727C7.49286 18.9469 8.27098 19.4016 9.11239 19.7157L9.4827 21.7149C9.51046 21.8648 9.58318 22.0027 9.69119 22.1103C9.79919 22.2179 9.93738 22.2901 10.0874 22.3172L10.1507 22.329C11.3814 22.5505 12.6418 22.5505 13.8725 22.329L13.9358 22.3172C14.0858 22.2901 14.224 22.2179 14.332 22.1103C14.44 22.0027 14.5128 21.8648 14.5405 21.7149L14.9085 19.725C15.7569 19.4063 16.5397 18.954 17.2429 18.3774L19.146 19.0547C19.2895 19.1055 19.4451 19.1114 19.592 19.0716C19.739 19.0318 19.8703 18.9483 19.9686 18.8321L20.0108 18.7829C20.8265 17.8196 21.4522 16.7344 21.8765 15.5555L21.8975 15.4946C21.9983 15.204 21.9116 14.8782 21.6749 14.6743ZM12.0116 15.8977C9.73583 15.8977 7.8913 14.0532 7.8913 11.7774C7.8913 9.50161 9.73583 7.65708 12.0116 7.65708C14.2874 7.65708 16.1319 9.50161 16.1319 11.7774C16.1319 14.0532 14.2874 15.8977 12.0116 15.8977Z" fill="white"/>
</svg>
